<svg xmlns="http://www.w3.org/2000/svg" width="718.11066" height="188.976" viewBox="0 0 718.11066 188.976"><defs><clipPath id="a" clipPathUnits="userSpaceOnUse"><path d="M0 141.732h538.583V0H0Z"/></clipPath></defs><g clip-path="url(#a)" transform="matrix(1.33333 0 0 -1.33333 0 188.976)"><path d="M0 0c-.045-.051-.09-.101-.141-.149-.25-.278-.501-.548-.761-.819-7.04 16.219-23.215 27.59-41.996 27.59-18.777 0-34.952-11.371-41.997-27.595-.325.341-.646.687-.961 1.037-.061.061-.116.126-.176.191-9.196 10.248-14.791 23.802-14.791 38.661 0 15.343 5.967 29.295 15.708 39.658 9.075 9.656 21.425 16.199 35.278 17.851V78.574h-35.278V61.623H-.682v16.946c9.737-10.363 15.703-24.31 15.703-39.653C15.021 23.931 9.335 10.277 0 0m-13.131-10.78c-.025-.02-.056-.034-.085-.05-3.636 12.976-15.564 22.513-29.682 22.513-14.114 0-26.047-9.537-29.683-22.513-.079.05-.154.097-.23.142-.034.018-.075.043-.109.063-3.637 2.206-7.011 4.799-10.059 7.736 6.437 15.825 21.981 27.004 40.081 27.004 18.105 0 33.648-11.179 40.08-27.004-3.119-3.007-6.578-5.65-10.313-7.891m-2.692-1.519c-.031-.014-.067-.035-.095-.051-8.054-4.251-17.234-6.658-26.98-6.658-9.868 0-19.163 2.467-27.295 6.824-.015.01-.03.015-.045.025-.032.015-.06.03-.092.052C-67.195.115-56.08 9.175-42.898 9.175c13.186 0 24.292-9.06 27.431-21.279-.121-.07-.237-.135-.356-.195m-27.075 109.14c1.273 0 2.542-.04 3.795-.126V75.512h3.053v.009h32.315V64.678h-78.327v10.843h35.273v21.183c1.284.091 2.582.137 3.891.137M-.687 78.574H-36.05v17.861c13.888-1.63 26.273-8.184 35.363-17.861m-42.211 24.121c-35.227 0-63.781-28.551-63.781-63.779 0-17.513 7.059-33.382 18.486-44.908.377-.381.762-.757 1.149-1.123.43-.416.866-.822 1.307-1.223.261-.236.523-.467.782-.692 3.314-2.918 6.931-5.48 10.801-7.66.171-.096.341-.192.51-.282.784-.436 1.58-.857 2.383-1.258.02-.01.045-.02.065-.031 8.528-4.22 18.135-6.602 28.298-6.602 10.072 0 19.598 2.336 28.066 6.492.077.04.157.075.231.115.828.406 1.644.833 2.448 1.279l.225.122c3.981 2.214 7.697 4.841 11.091 7.825.18.155.36.316.536.476.527.471 1.043.952 1.554 1.445.306.291.612.587.913.886C13.728 5.324 20.882 21.283 20.882 38.916c0 35.228-28.558 63.779-63.78 63.779" style="fill:#000;fill-opacity:1;fill-rule:nonzero;stroke:none" transform="translate(113.7657 32.0019)"/><path d="m0 0 5.987 37.371h23.687l-1.597-8.857-14.431.567-1.306-9.412 13.76-1.898-1.546-8.305-13.336 2.056-1.405-10.5 11.583-7.328-1.491-7.697Zm-70.886-.825 4.532 8.373s9.9-6.904 12.031-3.58c2.122 3.315-12.923 8.923-16.475 12.201-3.481 3.215-5.192 7.162-4.157 11.287 1.57 5.959 5.519 9.656 13.04 9.909 7.526.245 12.927-6.931 12.927-6.931l-5.269-8.389s-9.294 9.421-11.491 4.507c-2.203-4.913 26.369-10.505 20.283-24.541-6.06-13.977-25.421-2.836-25.421-2.836m31.171 2.884-7.723 33.807s23.896 6.394 27.326-6.805c3.436-13.198-12.315-16.667-12.315-16.667l1.842-8.053zm9.749 24.286c-1.129 2.985-6.014 1.778-6.014 1.778l1.49-6.589s5.644 1.827 4.524 4.811M-9.518 2.999c-5.76 1.017-10.139 7.082-10.396 7.317l5.739 4.51s4.235-6.68 5.843-4.57c1.61 2.117-11.28 12.231-9.418 20.289.71 3.074 3.553 5.99 7.07 6.238.28-.047.899-.017.899-.017l-.47.605 4.341-.019.765-1.008.686 1.013L.375 37.3l-3.198-3.479c2.202-1.661 3.384-3.17 4.346-4.82l-5.263-4.32s-3.726 6.147-5.983 4.07c-2.248-2.07 9.602-13.005 9.266-18.585-.197-3.29-1.249-4.671-1.708-5.162-2.697-2.892-7.048-2.059-7.353-2.005" style="fill:#000;fill-opacity:1;fill-rule:nonzero;stroke:none" transform="translate(93.1241 55.1865)"/><path d="m0 0-.05 1.977 1.052-.899.046-1.037.12-.101 1.088.081 1.003-.848-1.976-.255Z" style="fill:#000;fill-opacity:1;fill-rule:nonzero;stroke:none" transform="translate(97.2652 44.3798)"/><path d="m0 0-1.976-.255L-3.259.827l-.05 1.977 1.053-.899.045-1.037.12-.099 1.088.08z" style="fill:#000;fill-opacity:1;fill-rule:nonzero;stroke:none" transform="translate(100.524 43.5527)"/><path d="m0 0 1.594-.274.753-1.531-1.785.662Z" style="fill:#000;fill-opacity:1;fill-rule:nonzero;stroke:none" transform="translate(107.2623 31.9111)"/><path d="m0 0-1.785.662-.562 1.144 1.595-.277Z" style="fill:#000;fill-opacity:1;fill-rule:nonzero;stroke:none" transform="translate(109.6094 30.1064)"/><path d="m0 0 .394.745c.221.421.293.782.213 1.084-.079.302-.291.544-.636.726-.359.188-.666.21-.925.063-.258-.145-.496-.426-.714-.84l-.371-.704Zm2.698-3.365L-4.051.19l1.222 2.319c.262.498.565.913.913 1.245.348.333.743.536 1.188.61.445.074.94-.032 1.484-.319.525-.276.893-.624 1.104-1.044.211-.42.291-.872.244-1.358-.05-.486-.2-.966-.451-1.443l-.441-.839 2.287-1.205Z" style="fill:#000;fill-opacity:1;fill-rule:nonzero;stroke:none" transform="translate(37.8433 29.1757)"/><path d="m0 0-.549-.7L-2.234.622l.548.699c.28.357.552.582.815.678.264.096.542.028.837-.203.295-.231.444-.5.447-.805C.417.687.279.356 0 0m4.179-1.345L5.37.174l-3.486.53c.105.417.114.825 0 1.225-.125.433-.417.832-.877 1.192-.473.37-.928.56-1.365.566-.436.003-.849-.124-1.237-.383-.388-.261-.748-.604-1.08-1.028L-4.372.113 1.63-4.595l1.061 1.354L.528-1.545l.588.748z" style="fill:#000;fill-opacity:1;fill-rule:nonzero;stroke:none" transform="translate(41.7183 35.6054)"/><path d="m0 0-.308.658c-.158.363-.337.742-.532 1.139-.196.394-.388.771-.575 1.134l.035.03c.333-.243.674-.496 1.026-.762.352-.265.693-.511 1.02-.734l.587-.426Zm3.896-.875L5.301.29l-6.714 4.343-1.586-1.314L.03-4.077l1.352 1.12-.794 1.698L2.378.225z" style="fill:#000;fill-opacity:1;fill-rule:nonzero;stroke:none" transform="translate(47.231 40.0439)"/><path d="m0 0-3.567 6.742 1.52.805 1.373-2.596 2.327 1.231L.28 8.777l1.531.811 3.567-6.743-1.531-.81-1.489 2.814L.031 3.617 1.52.804Z" style="fill:#000;fill-opacity:1;fill-rule:nonzero;stroke:none" transform="translate(52.7779 40.4521)"/><path d="m0 0-.02.726c-.001.396-.012.815-.035 1.256-.021.44-.047.863-.075 1.269l.045.013c.208-.354.421-.723.638-1.106.217-.386.43-.746.641-1.081l.37-.625zm3.224-2.355 1.753.507-4.425 6.66-1.979-.573-.171-7.991 1.686.488-.05 1.873 2.233.647z" style="fill:#000;fill-opacity:1;fill-rule:nonzero;stroke:none" transform="translate(60.0186 47.1962)"/><path d="m0 0 .009 1.064c.628.548 1.189 1.062 1.68 1.542.492.48.878.925 1.158 1.335.281.413.423.789.425 1.133.004.366-.088.645-.273.838-.186.193-.442.291-.77.294-.265.002-.506-.072-.721-.223-.216-.15-.419-.325-.608-.527l-.893.898c.362.402.733.703 1.114.903.379.199.831.297 1.354.293.483-.004.91-.106 1.278-.304.369-.199.655-.474.859-.827.204-.353.304-.767.3-1.243-.004-.445-.127-.878-.369-1.301-.241-.423-.559-.844-.952-1.261-.394-.419-.811-.843-1.251-1.277.187.022.398.042.632.059.234.018.437.026.609.025l1.661-.015-.013-1.451Z" style="fill:#000;fill-opacity:1;fill-rule:nonzero;stroke:none" transform="translate(68.5332 45.7236)"/><path d="m0 0 .229 1.195L3.056.651l-.23-1.195Z" style="fill:#000;fill-opacity:1;fill-rule:nonzero;stroke:none" transform="translate(76.1485 47.6923)"/><path d="M0 0c-.496.189-.879.458-1.152.805-.273.345-.44.79-.5 1.33l1.295.307c.026-.236.107-.442.24-.617.133-.178.298-.303.494-.378.314-.12.585-.114.814.014.229.13.436.438.623.928L3.56 6.957l1.607-.614-1.796-4.699C3.192 1.178 2.945.78 2.628.455c-.316-.325-.695-.536-1.135-.63C1.051-.27.554-.212 0 0" style="fill:#000;fill-opacity:1;fill-rule:nonzero;stroke:none" transform="translate(82.1392 43.5751)"/><path d="m0 0 3.814 6.605 4.134-2.386-.725-1.256L4.578 4.49l-.766-1.328 2.25-1.299-.72-1.246-2.25 1.299-.877-1.52 2.746-1.585-.725-1.256Z" style="fill:#000;fill-opacity:1;fill-rule:nonzero;stroke:none" transform="translate(85.3047 42.4648)"/><path d="M0 0c-.501.422-.866.918-1.093 1.49-.227.573-.278 1.188-.153 1.848.125.658.461 1.312 1.008 1.965.406.484.842.853 1.306 1.111.465.256.936.406 1.414.455.477.047.94 0 1.387-.14.446-.143.855-.368 1.225-.678.377-.317.652-.674.825-1.074.173-.401.271-.79.292-1.163l-1.368-.21c-.028.257-.097.49-.206.701-.11.209-.269.4-.478.576-.257.215-.558.34-.905.369-.345.031-.702-.039-1.069-.209-.368-.17-.711-.447-1.032-.83C.817 3.813.592 3.416.48 3.027c-.114-.388-.121-.752-.022-1.09.099-.335.295-.628.587-.875.227-.189.471-.312.729-.367.261-.056.514-.074.762-.058l.008-1.336c-.486-.071-.941-.049-1.363.068C.758-.516.364-.307 0 0" style="fill:#000;fill-opacity:1;fill-rule:nonzero;stroke:none" transform="translate(92.5318 37.3994)"/><path d="m0 0 5.985 4.729 1.117-1.415L5.367-.547c-.115-.269-.249-.542-.404-.818-.155-.278-.315-.555-.482-.836l.029-.036c.301.287.627.604.978.951.352.348.706.662 1.061.942l2.12 1.676L9.691.037 3.706-4.691 2.589-3.277 4.325.584c.119.263.256.537.408.822.154.284.309.565.47.84l-.029.037c-.301-.297-.627-.619-.976-.965C3.85.974 3.499.66 3.144.381L1.023-1.295Z" style="fill:#000;fill-opacity:1;fill-rule:nonzero;stroke:none" transform="translate(94.8624 35.5331)"/><path d="M0 0c-.339-.283-.653-.559-.945-.828l-.546-.478-.732 1.454.71.153c.39.072.799.162 1.229.263C.145.666.556.77.95.871L.972.83C.661.561.337.283 0 0m1.684 2.328-7.887-1.297.788-1.566 1.832.392 1.046-2.078-1.41-1.232.82-1.629L2.609.488z" style="fill:#000;fill-opacity:1;fill-rule:nonzero;stroke:none" transform="translate(104.9361 29.6357)"/><path d="M0 0c0-4.488-1.049-7.924-3.135-10.298-2.076-2.386-5.074-3.573-9.012-3.573-1.76 0-3.385.301-4.885.912v7.073c1.299-.988 2.738-1.474 4.35-1.474 3.436 0 5.161 2.548 5.161 7.661v19.892H0V0" style="fill:#000;fill-opacity:1;fill-rule:nonzero;stroke:none" transform="translate(159.8946 32.8779)"/><path d="M0 0h-20.084v33.488H-.761v-6.135h-11.773v-7.449h10.947v-6.123h-10.947V6.123H0Z" style="fill:#000;fill-opacity:1;fill-rule:nonzero;stroke:none" transform="translate(187.3013 19.5829)"/><path d="m0 0-5.56-7.585h-5.787L-16.834 0h4.786l3.612-4.386L-4.786 0H0m.675-42.986c-2.438-1.19-5.637-1.776-9.572-1.776-5.138 0-9.185 1.514-12.121 4.524-2.937 3.023-4.412 7.048-4.412 12.07 0 5.362 1.648 9.713 4.949 13.036 3.311 3.337 7.611 4.997 12.896 4.997 3.26 0 6.024-.412 8.26-1.237v-7.259c-2.236 1.337-4.799 2.012-7.662 2.012-3.135 0-5.685-1.001-7.607-2.975-1.939-1.974-2.902-4.648-2.902-8.036 0-3.234.912-5.823 2.739-7.749 1.823-1.909 4.274-2.872 7.361-2.872 2.937 0 5.633.713 8.071 2.149v-6.884" style="fill:#000;fill-opacity:1;fill-rule:nonzero;stroke:none" transform="translate(216.0552 63.7685)"/><path d="M0 0h-7.611l-13.807 21.044c-.813 1.234-1.376 2.159-1.677 2.786h-.099c.125-1.186.186-3.001.186-5.426V0h-7.121v33.488h8.122l13.296-20.382c.601-.923 1.161-1.835 1.676-2.735h.099c-.125.775-.189 2.31-.189 4.598v18.519H0V0" style="fill:#000;fill-opacity:1;fill-rule:nonzero;stroke:none" transform="translate(252.7461 19.5829)"/><path d="m0 0-7.31-7.534h-5.323L-6.562 0H0m-3.247-30.891L-6.846-19.63c-.262.835-.451 1.836-.55 3.011h-.189c-.086-.985-.275-1.948-.585-2.924l-3.651-11.348h8.574M9.085-44.135H.864l-2.374 7.46h-11.923l-2.348-7.46h-8.174l12.185 33.489h8.945l11.91-33.489" style="fill:#000;fill-opacity:1;fill-rule:nonzero;stroke:none" transform="translate(280.812 63.7177)"/><path d="M0 0v10.285c3.686-3.126 7.749-4.686 12.182-4.686 2.125 0 3.776.424 4.949 1.289 1.175.873 1.763 2.008 1.763 3.397 0 1.199-.486 2.338-1.475 3.388-.988 1.061-3.336 2.473-7.073 4.235C3.324 21.232-.202 25.73-.202 31.405c0 4.137 1.527 7.448 4.576 9.933 3.061 2.512 7.146 3.763 12.246 3.763 4.498 0 8.221-.589 11.184-1.763v-9.61c-3.087 2.136-6.622 3.211-10.609 3.211-1.987 0-3.564-.425-4.725-1.286-1.161-.863-1.737-1.986-1.737-3.375 0-1.375.451-2.537 1.35-3.5.925-.971 2.851-2.149 5.788-3.534 4.548-2.176 7.671-4.325 9.382-6.463 1.712-2.149 2.576-4.674 2.576-7.597 0-4.236-1.536-7.585-4.6-10.058-3.037-2.463-7.471-3.689-13.309-3.689C7.147-2.563 3.174-1.712 0 0" style="fill:#000;fill-opacity:1;fill-rule:nonzero;stroke:none" transform="translate(148.6495 76.415)"/><path d="M0 0v-14.371h4.072c5.535 0 8.299 2.425 8.299 7.263C12.371-2.374 9.607 0 4.072 0H0m0-22.244v-15.883h-10.388V7.975H5.87c11.623 0 17.423-4.901 17.423-14.697 0-4.623-1.664-8.384-5.013-11.248-3.324-2.847-7.758-4.274-13.334-4.274H0" style="fill:#000;fill-opacity:1;fill-rule:nonzero;stroke:none" transform="translate(196.2623 112.7792)"/><path d="m0 0-7.646-10.447h-7.975L-23.168 0h6.587l4.984-6.049L-6.583 0H0m-26.028-58.06v10.286c3.685-3.126 7.745-4.687 12.182-4.687 2.112 0 3.763.425 4.95 1.289 1.173.873 1.762 2.009 1.762 3.398 0 1.199-.49 2.337-1.475 3.387-.988 1.062-3.349 2.473-7.073 4.236-7.035 3.324-10.547 7.822-10.547 13.497 0 4.136 1.525 7.447 4.562 9.932 3.074 2.512 7.146 3.763 12.258 3.763 4.498 0 8.222-.589 11.185-1.763v-9.61c-3.088 2.137-6.623 3.212-10.609 3.212-1.999 0-3.576-.426-4.725-1.286-1.161-.864-1.737-1.987-1.737-3.375 0-1.375.451-2.537 1.35-3.5.924-.972 2.851-2.15 5.787-3.534 4.533-2.176 7.672-4.326 9.384-6.463 1.711-2.15 2.575-4.674 2.575-7.598 0-4.235-1.539-7.585-4.601-10.058-3.049-2.462-7.486-3.688-13.308-3.688-4.773 0-8.759.851-11.92 2.562" style="fill:#000;fill-opacity:1;fill-rule:nonzero;stroke:none" transform="translate(250.545 134.4745)"/><path d="M0 0h-27.657v46.102h26.595v-8.461h-16.207v-10.26h15.081v-8.41h-15.081V8.423H0Z" style="fill:#000;fill-opacity:1;fill-rule:nonzero;stroke:none" transform="translate(289.3858 74.6523)"/><path d="M0 0v3.487c1.248-1.062 2.624-1.599 4.137-1.599.71 0 1.273.15 1.673.438.399.301.601.688.601 1.161 0 .4-.163.787-.502 1.139-.336.374-1.136.848-2.4 1.449-2.386 1.123-3.573 2.65-3.573 4.571 0 1.415.512 2.525 1.552 3.375 1.036.852 2.421 1.274 4.146 1.274 1.526 0 2.799-.198 3.8-.598v-3.263c-1.049.726-2.249 1.087-3.599 1.087-.675 0-1.212-.137-1.599-.435-.4-.287-.589-.662-.589-1.139 0-.46.15-.86.451-1.186.314-.336.976-.737 1.961-1.2 1.552-.736 2.614-1.475 3.187-2.198.588-.726.876-1.59.876-2.575 0-1.436-.524-2.575-1.561-3.413C7.534-.46 6.024-.873 4.047-.873 2.425-.873 1.075-.585 0 0" style="fill:#000;fill-opacity:1;fill-rule:nonzero;stroke:none" transform="translate(309.1436 104.6689)"/><path d="M0 0h-4.463v-12.771h-3.535V0h-4.437v2.86H0Z" style="fill:#000;fill-opacity:1;fill-rule:nonzero;stroke:none" transform="translate(332.7627 116.8417)"/><path d="m0 0-2.601-3.548h-2.7L-7.86 0h2.236l1.686-2.051L-2.239 0H0m-5.563-7.637v-4.347h1.526c.761 0 1.363.211 1.823.649.464.439.701.989.701 1.651 0 1.36-.825 2.047-2.464 2.047h-1.586m8.5-12.994h-4.05L-2.7-16.606c-.512 1.298-1.213 1.96-2.098 1.96h-.765v-5.985h-3.522V-5H-3.5C.298-5 2.185-6.411 2.185-9.249c0-1.088-.31-1.999-.937-2.748-.611-.748-1.475-1.274-2.585-1.561v-.051c.912-.288 1.66-1.088 2.236-2.4l2.038-4.622" style="fill:#000;fill-opacity:1;fill-rule:nonzero;stroke:none" transform="translate(343.9468 124.7021)"/><path d="M0 0h-9.386v15.631h9.021v-2.86h-5.496V9.283h5.109V6.424h-5.109V2.847H0z" style="fill:#000;fill-opacity:1;fill-rule:nonzero;stroke:none" transform="translate(358.4678 104.0712)"/><path d="M0 0v-9.924h1.75c1.526 0 2.713.464 3.586 1.376.877.911 1.302 2.162 1.302 3.749 0 1.487-.425 2.65-1.289 3.513C4.488-.438 3.276 0 1.724 0H0m-3.522-12.771V2.86h5.534c5.564 0 8.337-2.537 8.337-7.621 0-2.437-.765-4.385-2.274-5.838-1.513-1.449-3.539-2.172-6.063-2.172h-5.534" style="fill:#000;fill-opacity:1;fill-rule:nonzero;stroke:none" transform="translate(364.5142 116.8417)"/><path d="M0 0h-3.551l-6.447 9.82c-.377.576-.639 1.002-.79 1.3h-.035c.048-.551.087-1.398.087-2.537V0h-3.324v15.631h3.788l6.209-9.521c.288-.425.55-.851.787-1.276h.039c-.052.364-.09 1.074-.09 2.149v8.648H0V0" style="fill:#000;fill-opacity:1;fill-rule:nonzero;stroke:none" transform="translate(391.5469 104.0712)"/><path d="m0 0-3.414-3.522h-2.485L-3.062 0H0m-1.789-20.605h-3.522v15.631h3.522z" style="fill:#000;fill-opacity:1;fill-rule:nonzero;stroke:none" transform="translate(400.4566 124.6767)"/><path d="M0 0v-4.872h1.376c1.887 0 2.825.825 2.825 2.473C4.201-.8 3.263 0 1.376 0H0m0-7.546v-5.388h-3.522V2.713H1.99c3.948 0 5.909-1.663 5.909-4.987 0-1.574-.563-2.834-1.699-3.81-1.126-.976-2.636-1.462-4.523-1.462H0" style="fill:#000;fill-opacity:1;fill-rule:nonzero;stroke:none" transform="translate(313.3023 89.0732)"/><path d="M0 0v-4.363h1.526c.762 0 1.376.226 1.824.662.463.438.7.988.7 1.65C4.05-.687 3.238 0 1.6 0H0m8.5-13.011H4.45L2.876-8.986C2.352-7.675 1.651-7.025.765-7.025H0v-5.986h-3.522V2.636h5.585c3.801 0 5.698-1.423 5.698-4.261 0-1.075-.31-2-.937-2.738-.624-.749-1.488-1.274-2.598-1.562v-.051c.912-.285 1.661-1.085 2.236-2.409L8.5-13.011" style="fill:#000;fill-opacity:1;fill-rule:nonzero;stroke:none" transform="translate(327.0362 89.1503)"/><path d="M0 0c-.697 0-1.049-.336-1.049-1.023 0-.688.352-1.024 1.049-1.024.327 0 .589.099.8.301.214.198.326.434.326.723 0 .3-.112.537-.326.739C.602-.099.327 0 0 0m0-3.41c-.749 0-1.359.211-1.849.637-.473.438-.71 1.014-.71 1.711 0 .726.249 1.315.748 1.75.499.438 1.126.65 1.862.65.775 0 1.411-.212 1.888-.65.473-.425.723-.985.723-1.686 0-.713-.263-1.299-.787-1.75C1.35-3.186.727-3.41 0-3.41m6.514-10.323c0-4.697-2.188-7.036-6.575-7.036-4.248 0-6.359 2.289-6.359 6.875v9.035h3.522v-9.073c0-2.537.988-3.8 2.975-3.8 1.935 0 2.911 1.225 2.911 3.663v9.21h3.526v-8.874" style="fill:#000;fill-opacity:1;fill-rule:nonzero;stroke:none" transform="translate(343.982 96.6454)"/><path d="M0 0h-3.474v9.36c0 1.011.038 2.124.128 3.35h-.09c-.172-.963-.335-1.65-.486-2.076L-7.585 0h-2.886l-3.723 10.534c-.099.276-.263 1.002-.487 2.176h-.102c.09-1.539.137-2.886.137-4.063V0h-3.173v15.646h5.16l3.2-9.273c.252-.736.438-1.484.549-2.236h.065c.198.863.412 1.625.623 2.261l3.2 9.248H0V0" style="fill:#000;fill-opacity:1;fill-rule:nonzero;stroke:none" transform="translate(371.6992 76.1396)"/><path d="m0 0-5.096-10.083v-5.563h-3.512v5.499L-13.583 0h4.037l2.511-5.835c.052-.112.163-.537.362-1.276h.038c.099.524.211.937.34 1.225L-3.724 0H0" style="fill:#000;fill-opacity:1;fill-rule:nonzero;stroke:none" transform="translate(387.0454 91.7861)"/><path d="M0 0v3.5c1.251-1.065 2.639-1.6 4.136-1.6.727 0 1.277.147 1.677.435.4.301.598.688.598 1.165 0 .399-.163.787-.499 1.136-.336.361-1.136.85-2.399 1.435-2.387 1.14-3.574 2.662-3.574 4.588 0 1.399.512 2.525 1.549 3.372 1.036.851 2.425 1.277 4.149 1.277 1.539 0 2.799-.202 3.801-.602v-3.26c-1.053.723-2.253 1.088-3.6 1.088-.674 0-1.212-.138-1.599-.438-.4-.288-.589-.675-.589-1.136 0-.477.151-.863.451-1.199.311-.327.973-.727 1.961-1.2 1.549-.726 2.611-1.462 3.187-2.189.588-.726.873-1.586.873-2.575 0-1.437-.512-2.571-1.561-3.41C7.537-.451 6.024-.864 4.05-.864 2.425-.864 1.075-.576 0 0" style="fill:#000;fill-opacity:1;fill-rule:nonzero;stroke:none" transform="translate(387.9702 76.7411)"/><path d="M0 0h-9.31v15.646h3.522V2.863H0z" style="fill:#000;fill-opacity:1;fill-rule:nonzero;stroke:none" transform="translate(409.9165 76.1396)"/><path d="M0 0c-1.235 0-2.211-.464-2.937-1.401-.736-.912-1.097-2.137-1.097-3.672 0-1.552.361-2.775 1.097-3.676.726-.899 1.676-1.351 2.851-1.351 1.212 0 2.175.439 2.885 1.316.713.873 1.075 2.098 1.075 3.646 0 1.625-.349 2.889-1.037 3.788S1.199 0 0 0m-.15-13.136c-2.237 0-4.06.727-5.471 2.176-1.414 1.462-2.115 3.362-2.115 5.71 0 2.464.714 4.463 2.137 5.999 1.44 1.525 3.337 2.287 5.701 2.287 2.236 0 4.034-.739 5.41-2.201C6.888-.627 7.585-2.55 7.585-4.937c0-2.462-.723-4.436-2.147-5.95-1.426-1.497-3.289-2.249-5.588-2.249" style="fill:#000;fill-opacity:1;fill-rule:nonzero;stroke:none" transform="translate(418.2246 89.0126)"/><path d="m0 0-5.397-15.646h-3.986L-14.706 0h3.797l3.263-10.883c.173-.589.275-1.113.311-1.564h.064c.051.489.163 1.026.335 1.599L-3.685 0H0" style="fill:#000;fill-opacity:1;fill-rule:nonzero;stroke:none" transform="translate(441.418 91.7861)"/><path d="m0 0-3.41-3.525h-2.486L-3.074 0H0m-1.522-14.434-1.677 5.259c-.125.387-.211.864-.262 1.402h-.087c-.038-.452-.124-.913-.275-1.364l-1.698-5.297h3.999m5.761-6.187H.4l-1.11 3.487h-5.563l-1.098-3.487h-3.826l5.701 15.646h4.172l5.563-15.646" style="fill:#000;fill-opacity:1;fill-rule:nonzero;stroke:none" transform="translate(451.6905 96.7607)"/><path d="m0 0-2.598-3.535h-2.7L-7.86 0h2.239l1.686-2.048L-2.236 0H0m-8.833-19.694v3.487c1.248-1.049 2.624-1.587 4.137-1.587.71 0 1.273.15 1.673.439.399.297.601.687.601 1.148 0 .413-.163.8-.502 1.148-.336.366-1.136.851-2.4 1.44-2.386 1.123-3.573 2.662-3.573 4.585 0 1.4.512 2.523 1.552 3.375 1.036.85 2.421 1.272 4.146 1.272 1.526 0 2.799-.198 3.8-.597v-3.263C-.448-7.521-1.648-7.16-2.998-7.16c-.675 0-1.212-.151-1.599-.438-.4-.285-.589-.672-.589-1.149 0-.46.15-.86.451-1.187.314-.326.976-.726 1.961-1.199 1.552-.726 2.614-1.463 3.187-2.188.588-.723.876-1.587.876-2.573 0-1.439-.524-2.575-1.561-3.413-1.027-.835-2.537-1.26-4.514-1.26-1.622 0-2.972.3-4.047.873" style="fill:#000;fill-opacity:1;fill-rule:nonzero;stroke:none" transform="translate(317.9766 68.5165)"/><path d="M0 0h-4.447l-4.562 6.798c-.086.125-.224.413-.412.86h-.052V0h-3.522v15.644h3.522V8.247h.052c.086.198.236.499.438.873l4.309 6.524h4.213l-5.461-7.46L0 0" style="fill:#000;fill-opacity:1;fill-rule:nonzero;stroke:none" transform="translate(334.772 48.2245)"/><path d="M0 0c-1.226 0-2.214-.461-2.937-1.398-.726-.925-1.088-2.15-1.088-3.676 0-1.548.362-2.774 1.088-3.673.723-.899 1.673-1.35 2.847-1.35 1.226 0 2.189.439 2.899 1.312.713.873 1.062 2.086 1.062 3.65 0 1.622-.336 2.886-1.037 3.784C2.146-.448 1.2 0 0 0m-.15-13.146c-2.24 0-4.063.737-5.474 2.185-1.414 1.463-2.112 3.362-2.112 5.701 0 2.473.711 4.473 2.147 5.998C-4.162 2.274-2.262 3.035.099 3.035c2.236 0 4.037-.735 5.41-2.197C6.897-.624 7.585-2.55 7.585-4.937c0-2.459-.713-4.446-2.15-5.947-1.427-1.5-3.289-2.262-5.585-2.262" style="fill:#000;fill-opacity:1;fill-rule:nonzero;stroke:none" transform="translate(342.3604 61.0947)"/><path d="M0 0h-9.31v15.644h3.526V2.859H0Z" style="fill:#000;fill-opacity:1;fill-rule:nonzero;stroke:none" transform="translate(361.8399 48.2245)"/><path d="m0 0-1.686 5.263c-.128.386-.214.86-.262 1.397h-.09c-.038-.447-.125-.911-.275-1.359L-4.012 0H0m5.749-6.184H1.913L.8-2.696h-5.56l-1.101-3.488h-3.823L-3.986 9.46H.186L5.749-6.184" style="fill:#000;fill-opacity:1;fill-rule:nonzero;stroke:none" transform="translate(372.4385 54.4081)"/><path d="M0 0h-9.374v15.635h9.009v-2.864h-5.487V9.297h5.113v-2.86h-5.113V2.863H0z" style="fill:#000;fill-opacity:1;fill-rule:nonzero;stroke:none" transform="translate(319.1538 20.3056)"/><path d="M0 0h-9.31v15.635h3.523V2.863H0z" style="fill:#000;fill-opacity:1;fill-rule:nonzero;stroke:none" transform="translate(331 20.3056)"/><path d="M0 0h-9.386v15.635h9.021v-2.864h-5.499V9.297h5.125v-2.86h-5.125V2.863H0z" style="fill:#000;fill-opacity:1;fill-rule:nonzero;stroke:none" transform="translate(342.4976 20.3056)"/><path d="M0 0h-4.45l-4.559 6.798c-.089.125-.227.413-.412.864h-.064V0h-3.522v15.635h3.522V8.248h.064c.086.201.224.489.435.876l4.312 6.511h4.201l-5.451-7.448L0 0" style="fill:#000;fill-opacity:1;fill-rule:nonzero;stroke:none" transform="translate(358.0293 20.3056)"/><path d="M0 0h-4.459v-12.771h-3.539V0h-4.434v2.863H0Z" style="fill:#000;fill-opacity:1;fill-rule:nonzero;stroke:none" transform="translate(370.6245 33.0771)"/><path d="M0 0v-4.351h1.526c.762 0 1.363.228 1.824.65.463.451.7 1.001.7 1.65C4.05-.675 3.225 0 1.587 0H0m8.5-12.998H4.45L2.876-8.974C2.352-7.662 1.651-7.013.765-7.013H0v-5.985h-3.522V2.637h5.585c3.798 0 5.698-1.414 5.698-4.249 0-1.088-.313-1.999-.95-2.751-.611-.749-1.475-1.261-2.585-1.562v-.038c.912-.285 1.661-1.098 2.236-2.412L8.5-12.998" style="fill:#000;fill-opacity:1;fill-rule:nonzero;stroke:none" transform="translate(376.2486 33.3036)"/><path d="M0 0c-1.238 0-2.224-.464-2.95-1.4-.726-.925-1.087-2.151-1.087-3.673 0-1.552.361-2.778 1.087-3.676.726-.899 1.686-1.35 2.864-1.35 1.209 0 2.172.438 2.885 1.302.714.886 1.075 2.099 1.075 3.659 0 1.613-.352 2.876-1.037 3.788C2.137-.45 1.2 0 0 0m-.15-13.147c-2.249 0-4.073.725-5.487 2.187-1.398 1.462-2.112 3.362-2.112 5.698 0 2.473.714 4.472 2.15 5.998C-4.162 2.262-2.262 3.023.099 3.023c2.224 0 4.038-.726 5.413-2.188 1.373-1.462 2.06-3.384 2.06-5.783 0-2.451-.713-4.438-2.15-5.938-1.423-1.51-3.285-2.261-5.572-2.261" style="fill:#000;fill-opacity:1;fill-rule:nonzero;stroke:none" transform="translate(393.4951 33.1786)"/><path d="M0 0h-4.462v-12.771h-3.523V0h-4.45v2.863H0Z" style="fill:#000;fill-opacity:1;fill-rule:nonzero;stroke:none" transform="translate(413.7647 33.0771)"/><path d="M0 0h-9.373v15.635h9.008v-2.864h-5.483V9.297h5.109v-2.86h-5.109V2.863H0z" style="fill:#000;fill-opacity:1;fill-rule:nonzero;stroke:none" transform="translate(425.2495 20.3056)"/><path d="M0 0c-1.152-.551-2.64-.825-4.476-.825-2.399 0-4.287.713-5.659 2.111-1.376 1.414-2.064 3.301-2.064 5.65 0 2.498.775 4.523 2.313 6.085 1.549 1.55 3.561 2.325 6.025 2.325 1.522 0 2.808-.189 3.861-.576v-3.385c-1.053.624-2.24.937-3.577.937-1.475 0-2.662-.464-3.561-1.387-.899-.925-1.349-2.176-1.349-3.75 0-1.513.425-2.722 1.276-3.624.848-.9 2-1.337 3.436-1.337 1.376 0 2.623.326 3.775 1.001V0" style="fill:#000;fill-opacity:1;fill-rule:nonzero;stroke:none" transform="translate(438.9966 20.8564)"/><path d="M0 0h-3.535v6.373h-6.475V0h-3.522v15.635h3.522V9.399h6.475v6.236H0Z" style="fill:#000;fill-opacity:1;fill-rule:nonzero;stroke:none" transform="translate(455.2769 20.3056)"/><path d="M0 0h-3.547l-6.45 9.821c-.387.576-.637 1.015-.787 1.303h-.051c.064-.551.089-1.401.089-2.524V0h-3.324v15.635h3.798l6.2-9.512c.288-.437.55-.86.787-1.286h.048c-.061.375-.087 1.088-.087 2.15v8.648H0V0" style="fill:#000;fill-opacity:1;fill-rule:nonzero;stroke:none" transform="translate(472.9102 20.3056)"/><path d="M476.509 35.94h3.525V20.305h-3.525z" style="fill:#000;fill-opacity:1;fill-rule:nonzero;stroke:none"/><path d="M0 0c-1.148-.551-2.636-.825-4.472-.825-2.4 0-4.287.713-5.663 2.111-1.375 1.414-2.063 3.301-2.063 5.65 0 2.498.777 4.523 2.313 6.085 1.551 1.55 3.56 2.325 6.024 2.325 1.523 0 2.812-.189 3.861-.576v-3.385c-1.049.624-2.236.937-3.586.937-1.462 0-2.649-.464-3.551-1.387-.899-.925-1.347-2.176-1.347-3.75 0-1.513.422-2.722 1.273-3.624.851-.9 2-1.337 3.436-1.337 1.376 0 2.627.326 3.775 1.001V0" style="fill:#000;fill-opacity:1;fill-rule:nonzero;stroke:none" transform="translate(494.7925 20.8564)"/><path d="M0 0h-4.45l-4.562 6.798c-.086.125-.224.413-.409.864h-.052V0h-3.525v15.635h3.525V8.248h.052c.086.201.236.489.435.876l4.312 6.511h4.197l-5.448-7.448L0 0" style="fill:#000;fill-opacity:1;fill-rule:nonzero;stroke:none" transform="translate(510.5386 20.3056)"/><path d="m0 0-3.411-3.513h-2.485L-3.075 0H0m-1.523-14.421-1.676 5.246c-.125.401-.212.864-.262 1.414h-.087c-.038-.464-.125-.912-.275-1.362l-1.699-5.298h3.999m5.762-6.187H.4l-1.11 3.474h-5.564l-1.097-3.474h-3.826l5.701 15.634h4.171l5.564-15.634" style="fill:#000;fill-opacity:1;fill-rule:nonzero;stroke:none" transform="translate(521.5342 40.914)"/></g></svg>